Coordinates
version=1
nRows=17
nColumns=33
inDegrees=yes

Units are S.I. units (second, meters, Newtons, ...)
Angles are in degrees.

endheader
time	ground_thorax_rot_x	ground_thorax_rot_y	ground_thorax_rot_z	ground_thorax_tx	ground_thorax_ty	ground_thorax_tz	clav_prot_r	clav_elev_r	scapula_abduction_r	scapula_elevation_r	scapula_upward_rot_r	scapula_winging_r	shoulder_elv_r	plane_of_elev_r	axial_rot_r	elbow_flexion_r	pro_sup_r	wrist_flex_r	wrist_dev_r	clav_prot_l	clav_elev_l	scapula_abduction_l	scapula_elevation_l	scapula_upward_rot_l	scapula_winging_l	shoulder_elv_l	plane_of_elev_l	axial_rot_l	elbow_flexion_l	pro_sup_l	wrist_flex_l	wrist_dev_l
      7.13000000	     23.66008715	     31.78899040	     49.66094309	     63.46056427	    761.19388993	    -32.39823141	     12.35574251	     35.89514865	     25.88366778	     45.00000000	    -45.00000000	  -3675.24588207	  -2450.01565784	     21.63562294	    179.99999979	   1804.55960381	   -169.29177254	     11.06731719	     12.64955214	    -14.92699783	    -45.00000000	    -32.28183310	     45.00000000	    -45.00000000	  -1703.29565804	  -1368.45879634	     22.80915247	     20.17672671	   1790.57232595	     48.00201524	     11.50214045	    -13.20949031
      7.14000000	     23.60994348	     31.86832065	     49.75891769	     63.21451380	    760.97035021	    -32.37163623	     12.20562488	     35.78491546	     25.73457271	     45.00000000	    -45.00000000	  -3675.14952596	  -2449.85345532	     21.63448810	    179.99999979	   1804.65575398	   -169.39905680	     11.10270238	     12.68333237	    -15.33867368	    -45.00000000	    -32.04579952	     45.00000000	    -45.00000000	  -1703.12134977	  -1368.37215579	     22.90343562	     20.02167905	   1790.40724108	     47.94859137	     11.15167558	    -13.10714118
      7.15000000	     23.82510104	     31.87866713	     49.25340595	     62.85846123	    760.77862936	    -32.36859416	     12.29133509	     35.97065973	     26.00505572	     45.00000000	    -45.00000000	  -3675.46522006	  -2450.07819255	     21.67139275	    179.99999979	   1804.57270933	   -169.55008876	     10.97436097	     12.64037929	    -14.98024172	    -45.00000000	    -32.50641099	     45.00000000	    -45.00000000	  -1703.31007120	  -1368.58007760	     22.70085566	     19.88909632	   1790.73606993	     47.69362849	     12.03341427	    -13.50028217
      7.16000000	     23.64787243	     32.02722862	     49.49771707	     62.38335545	    760.60600501	    -32.38623626	     12.26654176	     35.77416045	     25.78516114	     45.00000000	    -45.00000000	  -3675.28534185	  -2449.88114425	     21.53404222	    179.99999979	   1804.72313560	   -169.84514039	     11.04919819	     12.70761433	    -15.30661460	    -45.00000000	    -32.32068050	     45.00000000	    -45.00000000	  -1703.11532663	  -1368.36368323	     22.77327355	     19.91062041	   1790.45508740	     47.36587945	     11.26856330	    -13.16359136
      7.17000000	     23.80943068	     32.00867253	     49.18824706	     61.81152809	    760.45697727	    -32.42320067	     12.23542370	     35.97235104	     25.96269717	     45.00000000	    -45.00000000	  -3675.43856357	  -2449.99887010	     21.60359486	    179.99999979	   1804.83400762	   -170.13729770	     10.95451167	     12.71932809	    -15.03565560	    -45.00000000	    -32.33661452	     45.00000000	    -45.00000000	  -1703.16753434	  -1368.32348778	     22.77180128	     19.80290372	   1790.48599415	     46.96220151	     11.82028605	    -13.31286219
      7.18000000	     23.78251721	     32.07186255	     49.17942374	     61.14391116	    760.32453214	    -32.47688163	     12.27717981	     35.82406150	     25.76734869	     45.00000000	    -45.00000000	  -3675.38260530	  -2449.79557429	     21.68470151	    179.99999979	   1804.91359307	   -170.48010716	     10.96532576	     12.75993339	    -15.19977639	    -45.00000000	    -32.25643749	     45.00000000	    -45.00000000	  -1702.98356587	  -1368.20223145	     22.86674275	     19.81188082	   1790.29310864	     46.54573981	     11.55870473	    -13.27520080
      7.19000000	     23.96132469	     32.06350296	     48.82876212	     60.38610615	    760.20595994	    -32.54403410	     12.22044028	     36.01418590	     25.97103940	     45.00000000	    -45.00000000	  -3675.59801428	  -2449.91119690	     21.71996200	    179.99999979	   1804.90624181	   -170.82919809	     10.91994698	     12.76794978	    -14.97470824	    -45.00000000	    -32.37589099	     45.00000000	    -45.00000000	  -1703.02854008	  -1368.23991277	     22.79086702	     19.74146843	   1790.44498208	     46.09392496	     12.05982707	    -13.42828067
      7.20000000	     23.84953284	     32.20225350	     49.07959648	     59.54620687	    760.09965545	    -32.62110554	     12.35126758	     35.77577001	     25.57245669	     45.00000000	    -45.00000000	  -3675.66677272	  -2449.55619467	     21.84919807	    179.99999979	   1804.71531039	   -171.23587825	     11.12421343	     12.85184706	    -15.16162084	    -45.00000000	    -31.91154058	     45.00000000	    -45.00000000	  -1702.67869996	  -1368.02917875	     22.98234230	     19.93379598	   1790.21563854	     45.66790410	     11.41907267	    -13.35754243
      7.21000000	     24.00153878	     32.18445545	     48.62310075	     58.61862753	    760.00409606	    -32.70593117	     12.30888398	     35.95284358	     25.86708071	     45.00000000	    -45.00000000	  -3675.67476052	  -2449.75515637	     21.74553934	    179.99999979	   1804.99902928	   -171.64250681	     10.89814898	     12.81641844	    -14.84305074	    -45.00000000	    -32.39742809	     45.00000000	    -45.00000000	  -1702.87078774	  -1368.02550788	     22.81959744	     19.77506404	   1790.28505912	     45.13061192	     12.04633611	    -13.38199936
      7.22000000	     24.05606357	     32.21606100	     48.46559454	     57.62050452	    759.92155923	    -32.79458172	     12.21681059	     35.89512518	     25.94064152	     45.00000000	    -45.00000000	  -3675.86555093	  -2449.80703090	     21.82991328	    179.99999979	   1805.09683218	   -172.01609810	     11.03070597	     13.02893660	    -15.09467085	    -45.00000000	    -32.53509321	     45.00000000	    -45.00000000	  -1702.68398915	  -1368.02252658	     22.90385554	     19.80822029	   1790.11333354	     44.68169389	     11.89908064	    -13.61611004
      7.23000000	     24.15078950	     32.21721412	     48.24729484	     56.54666260	    759.85304706	    -32.88531923	     12.32312031	     36.03577146	     25.87209599	     45.00000000	    -45.00000000	  -3675.77675207	  -2449.65758617	     21.77457895	    179.99999979	   1804.99144552	   -172.36651109	     10.85393337	     12.76208040	    -14.72748467	    -45.00000000	    -32.39843138	     45.00000000	    -45.00000000	  -1702.76532708	  -1367.81899508	     22.81478062	     19.74656526	   1790.22463053	     44.29152466	     12.27175905	    -13.34271786
      7.24000000	     24.12864003	     32.34048364	     48.11328492	     55.39955339	    759.80176560	    -32.97607746	     12.30717117	     35.88300086	     25.88096830	     45.00000000	    -45.00000000	  -3675.95990819	  -2449.68123497	     21.83017305	    179.99999979	   1805.27621531	   -172.74945241	     10.98841541	     13.03058638	    -14.88729730	    -45.00000000	    -32.68552617	     45.00000000	    -45.00000000	  -1702.59002527	  -1367.86479985	     22.92786387	     19.81765280	   1790.03952827	     43.77402723	     11.96873498	    -13.65420999
      7.25000000	     24.29372293	     32.30818757	     47.85976391	     54.17335737	    759.77092699	    -33.06582144	     12.25526876	     36.02942881	     26.02551968	     45.00000000	    -45.00000000	  -3676.07505350	  -2449.68144040	     21.81713071	    179.99999979	   1805.16333043	   -173.05031667	     10.93466237	     13.05350660	    -14.69727877	    -45.00000000	    -32.59647869	     45.00000000	    -45.00000000	  -1702.56737714	  -1367.72739936	     22.87706755	     19.80881539	   1790.05642753	     43.38940697	     12.37246040	    -13.55523183
      7.26000000	     24.27473982	     32.40763388	     47.72233681	     52.86758369	    759.76458042	    -33.15355530	     12.35693988	     35.85472648	     25.87906761	     45.00000000	    -45.00000000	  -3676.20977129	  -2449.64325137	     21.94643929	    179.99999979	   1805.28343036	   -173.33633194	     11.12434265	     13.14267854	    -14.83076846	    -45.00000000	    -32.84441142	     45.00000000	    -45.00000000	  -1702.40703647	  -1367.74331994	     22.94554179	     19.90257962	   1789.84610569	     42.95549011	     11.93540039	    -13.83914937
      7.27000000	     24.46163279	     32.35812338	     47.38683654	     51.47737144	    759.78647621	    -33.23951646	     12.23513276	     36.07399215	     26.09769628	     45.00000000	    -45.00000000	  -3676.25081201	  -2449.64951896	     21.79164914	    179.99999979	   1805.22093528	   -173.50974382	     10.90140358	     13.11721067	    -14.50713618	    -45.00000000	    -32.69313516	     45.00000000	    -45.00000000	  -1702.43701600	  -1367.56437142	     22.94945747	     19.89626652	   1789.98368555	     42.63532031	     12.59378253	    -13.55881586
      7.28000000	     24.40077701	     32.49242959	     47.31868855	     50.00034847	    759.84024519	    -33.32464664	     12.41610302	     35.82159485	     25.85370150	     45.00000000	    -45.00000000	  -3676.44047365	  -2449.59887536	     22.05515616	    179.99999979	   1805.43900626	   -173.71005617	     11.27866949	     13.25794095	    -14.77051012	    -45.00000000	    -33.05681332	     45.00000000	    -45.00000000	  -1702.24594765	  -1367.60726617	     22.97038887	     20.00754180	   1789.63162821	     42.20990909	     11.78082708	    -14.07693450
      7.29000000	     24.50383689	     32.51595730	     47.10305319	     48.43439096	    759.92865773	    -33.41059421	     12.39413499	     35.90206329	     25.95877071	     45.00000000	    -45.00000000	  -3676.48082740	  -2449.53075631	     21.84511352	    179.99999979	   1805.24889376	   -173.78835090	     11.12021408	     13.17968933	    -14.43817883	    -45.00000000	    -33.08218429	     45.00000000	    -45.00000000	  -1702.27687816	  -1367.47888354	     22.79510633	     19.98274713	   1789.91981295	     41.88298758	     12.25518939	    -13.77500932
